<?xml version="1.0" encoding="UTF-8" standalone="no"?>
<!-- Created with Inkscape (http://www.inkscape.org/) -->

<svg
   width="182.13016mm"
   height="181.9334mm"
   viewBox="0 0 182.13016 181.9334"
   version="1.1"
   id="svg1"
   sodipodi:docname="pergamena.svg"
   inkscape:version="1.3.2 (091e20e, 2023-11-25, custom)"
   xmlns:inkscape="http://www.inkscape.org/namespaces/inkscape"
   xmlns:sodipodi="http://sodipodi.sourceforge.net/DTD/sodipodi-0.dtd"
   xmlns:xlink="http://www.w3.org/1999/xlink"
   xmlns="http://www.w3.org/2000/svg"
   xmlns:svg="http://www.w3.org/2000/svg"
   xmlns:rdf="http://www.w3.org/1999/02/22-rdf-syntax-ns#"
   xmlns:cc="http://creativecommons.org/ns#"
   xmlns:dc="http://purl.org/dc/elements/1.1/">
  <title
     id="title66">pergamena2</title>
  <sodipodi:namedview
     id="namedview1"
     pagecolor="#ffffff"
     bordercolor="#000000"
     borderopacity="0.25"
     inkscape:showpageshadow="2"
     inkscape:pageopacity="0.0"
     inkscape:pagecheckerboard="0"
     inkscape:deskcolor="#d1d1d1"
     inkscape:document-units="mm"
     inkscape:zoom="1.3843855"
     inkscape:cx="197.1994"
     inkscape:cy="45.868726"
     inkscape:window-width="1920"
     inkscape:window-height="991"
     inkscape:window-x="-9"
     inkscape:window-y="-9"
     inkscape:window-maximized="1"
     inkscape:current-layer="layer1" />
  <defs
     id="defs1">
    <linearGradient
       id="linearGradient58"
       inkscape:collect="always">
      <stop
         style="stop-color:#ffdd55;stop-opacity:1;"
         offset="0"
         id="stop59" />
      <stop
         style="stop-color:#ffdd55;stop-opacity:0;"
         offset="1"
         id="stop60" />
    </linearGradient>
    <linearGradient
       id="swatch52">
      <stop
         style="stop-color:#ffdd55;stop-opacity:1;"
         offset="0"
         id="stop52" />
    </linearGradient>
    <inkscape:perspective
       sodipodi:type="inkscape:persp3d"
       inkscape:vp_x="4.870259 : 126.34291 : 1"
       inkscape:vp_y="981.46343 : 664.25835 : 0"
       inkscape:vp_z="109.63456 : -148.09017 : 1"
       inkscape:persp3d-origin="8.6699715 : -43.754417 : 1"
       id="perspective25" />
    <linearGradient
       id="swatch19"
       inkscape:swatch="solid">
      <stop
         style="stop-color:#fff6d5;stop-opacity:1;"
         offset="0"
         id="stop19" />
    </linearGradient>
    <linearGradient
       id="swatch1"
       inkscape:swatch="solid">
      <stop
         style="stop-color:#1100fe;stop-opacity:0;"
         offset="0"
         id="stop1" />
    </linearGradient>
    <radialGradient
       inkscape:collect="always"
       xlink:href="#linearGradient58"
       id="radialGradient60"
       cx="93.248001"
       cy="76.625526"
       fx="93.248001"
       fy="76.625526"
       r="69.868431"
       gradientTransform="matrix(1.0174081,0,0,0.06769825,-0.40699447,71.438115)"
       gradientUnits="userSpaceOnUse" />
    <radialGradient
       inkscape:collect="always"
       xlink:href="#linearGradient58"
       id="radialGradient60-8"
       cx="93.248001"
       cy="76.625526"
       fx="93.248001"
       fy="76.625526"
       r="69.868431"
       gradientTransform="matrix(1,0,0,0.06769825,0.4042289,220.9988)"
       gradientUnits="userSpaceOnUse" />
  </defs>
  <g
     inkscape:label="Livello 1"
     inkscape:groupmode="layer"
     id="layer1"
     transform="translate(-2.1436539,-64.18286)">
    <rect
       style="opacity:0.978155;fill:#fff6d5;fill-opacity:1;stroke:none;stroke-width:1.00499;stroke-dasharray:0.251247, 0.251247;stroke-dashoffset:1.00499;stroke-opacity:1;paint-order:stroke fill markers"
       id="rect19"
       width="143.72388"
       height="150.56178"
       x="22.758377"
       y="81.547997"
       rx="0"
       ry="0"
       inkscape:label="rect19" />
    <path
       style="opacity:0.978155;fill:#fff6d5;fill-opacity:1;stroke:none;stroke-width:1.15483;stroke-dasharray:0.288708, 0.288708;stroke-dashoffset:1.15483;stroke-opacity:1;paint-order:stroke fill markers"
       d="m 165.41384,224.64062 c -13.543,19.07826 -13.80344,20.20051 -13.80344,20.20051 L 8.627551,245.21521 27.118957,224.26656 Z"
       id="path34" />
    <path
       style="fill:url(#radialGradient60-8);fill-opacity:1;fill-rule:evenodd;stroke:none;stroke-width:1;stroke-dasharray:0.25, 0.25;stroke-dashoffset:1;stroke-opacity:0.980392;paint-order:stroke fill markers"
       d="m 23.7838,230.91619 4.459686,-9.3248 135.277174,-0.13514 -4.05426,9.3248 z"
       id="path41-8" />
    <path
       style="opacity:0.978155;fill:#fff6d5;fill-opacity:1;stroke:none;stroke-width:1.08023;stroke-dasharray:0.270058, 0.270058;stroke-dashoffset:1.08023;stroke-opacity:1;paint-order:stroke fill markers"
       id="path35"
       sodipodi:type="arc"
       sodipodi:cx="13.467818"
       sodipodi:cy="234.69655"
       sodipodi:rx="11.324164"
       sodipodi:ry="11.4197"
       sodipodi:start="0"
       sodipodi:end="6.2150123"
       sodipodi:open="true"
       sodipodi:arc-type="arc"
       d="M 24.791983,234.69655 A 11.324164,11.4197 0 0 1 13.66081,246.11459 11.324164,11.4197 0 0 1 2.1502319,235.08573 11.324164,11.4197 0 0 1 12.889069,223.29177 11.324164,11.4197 0 0 1 24.765678,233.91864" />
    <path
       sodipodi:type="spiral"
       style="fill:none;fill-rule:evenodd;stroke:#ffda59;stroke-width:0.264583;stroke-opacity:0.980392"
       id="path36"
       sodipodi:cx="8.3788052"
       sodipodi:cy="230.28201"
       sodipodi:expansion="1"
       sodipodi:revolution="3"
       sodipodi:radius="11.568663"
       sodipodi:argument="-17.931606"
       sodipodi:t0="0"
       d="m 8.3788052,230.28201 c 0.3523419,0.46076 -0.4472552,0.70227 -0.7658048,0.58562 -0.8632498,-0.31613 -0.8543299,-1.47464 -0.4054262,-2.11723 0.8029833,-1.14943 2.4799941,-1.07302 3.4686448,-0.22523 1.450886,1.24416 1.300263,3.49972 0.04505,4.82006 -1.6730037,1.7598 -4.5246635,1.53126 -6.1714857,-0.13514 -2.0723578,-2.09699 -1.764225,-5.5521 0.3153309,-7.52291 2.5186208,-2.3869 6.5809568,-1.99833 8.8743268,0.49552 2.702656,2.93893 2.233169,7.6107 -0.67571,10.22575 -3.3584157,3.01918 -8.6410194,2.46848 -11.5771668,-0.8559 -3.3362374,-3.77737 -2.7041303,-9.67176 1.036088,-12.92858 4.1959597,-3.65367 10.7027998,-2.94003 14.2800078,1.21627 3.971378,4.61428 3.176096,11.73407 -1.396467,15.63143"
       transform="matrix(-0.15890736,0.98729349,0.98729349,0.15890736,-212.3419,189.44987)" />
    <path
       id="path37"
       style="opacity:0.978155;fill:#fff6d5;fill-opacity:1;stroke:none;stroke-width:1.00996;stroke-dasharray:0.252487, 0.252487;stroke-dashoffset:1.00996;stroke-opacity:1;paint-order:stroke fill markers"
       d="m 35.634633,68.301472 -2.830318,3.362585 2.763139,-3.29644 -2.640149,0.664043 -1.971973,1.426786 -3.576526,3.186369 -2.840653,4.048848 -2.044837,6.221843 -0.227893,0.270784 H 164.2459 l 14.09889,-14.441496 c 0.008,-0.02043 0.0192,-0.03851 0.0357,-0.05219 -0.0601,-0.03854 -0.12028,-0.07702 -0.18138,-0.114205 -0.0765,-0.05509 -0.16002,-0.09064 -0.25012,-0.115755 -0.0953,-0.01878 -0.18837,-0.0465 -0.28267,-0.06925 -0.10345,-0.03306 -0.2047,-0.07534 -0.3023,-0.12299 -0.0886,-0.04291 -0.17555,-0.08838 -0.25735,-0.143144 -0.0695,-0.04051 -0.13277,-0.09241 -0.20567,-0.126607 -0.10533,-0.05103 -0.21321,-0.09736 -0.32298,-0.137976 -0.11057,-0.03243 -0.21627,-0.0771 -0.32401,-0.117306 -0.12435,-0.04928 -0.25652,-0.07191 -0.38654,-0.100252 -0.12086,-0.02224 -0.23846,-0.05812 -0.35709,-0.0894 -0.0846,-0.02803 -0.16761,-0.06087 -0.25011,-0.09457 -0.0652,-0.03105 -0.12677,-0.06762 -0.19637,-0.08785 -0.0402,-0.0095 -0.0196,-0.0051 -0.0605,-0.01292 -0.0611,-0.01174 -0.10851,-0.03274 -0.14315,-0.05891 z m 140.240537,0 c 0.0214,0.0048 0.043,0.0095 0.0646,0.01344 -0.009,-0.0047 -0.0183,-0.0088 -0.0274,-0.01344 z m 1.61902,0 c 0.005,0.0018 0.011,0.0034 0.0165,0.0052 -2e-5,-0.0017 -5.2e-4,-0.0034 -5.2e-4,-0.0052 z m 1.13327,0.922941 c 0.0283,0.02533 0.0563,0.05131 0.0842,0.077 0.0107,0.01145 0.022,0.02241 0.0331,0.03359 l 0.0961,-0.0987 c -0.0711,-0.0028 -0.14236,-0.0062 -0.21342,-0.01189 z" />
    <path
       id="path38"
       style="opacity:0.978155;fill:#fff6d5;fill-opacity:1;stroke:none;stroke-width:0.753484;stroke-dasharray:0.188372, 0.188372;stroke-dashoffset:0.753484;stroke-opacity:1;paint-order:stroke fill markers"
       transform="matrix(0.96189529,0.27341809,-0.42379791,0.90575677,0,0)"
       d="m 191.03997,18.942772 a 8.0274668,7.7796535 -180 0 0 -5.76205,8.888723 8.0274668,7.7796535 -180 0 0 8.6182,6.358676 8.0274668,7.7796535 -180 0 0 7.3074,-7.748023 l -0.32987,-1.763214 c -0.034,-0.07728 -0.0682,-0.154899 -0.10228,-0.232141 -0.0383,-0.08677 -0.0762,-0.173623 -0.1147,-0.260341 -0.0371,-0.08427 -0.0743,-0.168508 -0.11327,-0.252215 -0.0345,-0.07412 -0.0684,-0.148479 -0.10847,-0.220575 -0.046,-0.08263 -0.0955,-0.163155 -0.14905,-0.241983 -0.0588,-0.09024 -0.11494,-0.182244 -0.17246,-0.273145 -0.0729,-0.107295 -0.15181,-0.211064 -0.21557,-0.323458 -0.0699,-0.128851 -0.13406,-0.260353 -0.20919,-0.387004 -0.0577,-0.09791 -0.12006,-0.192446 -0.18481,-0.286534 -0.0469,-0.06831 -0.10093,-0.131682 -0.15068,-0.19813 -0.0442,-0.06317 -0.0931,-0.123044 -0.13737,-0.186178 -0.0665,-0.0795 -0.13517,-0.157177 -0.19876,-0.23896 -0.071,-0.08411 -0.1456,-0.165775 -0.2137,-0.252137 -0.0655,-0.07191 -0.12815,-0.146455 -0.19728,-0.214873 -0.0799,-0.07497 -0.15451,-0.155697 -0.2408,-0.223417 -0.0908,-0.07515 -0.18831,-0.140555 -0.28155,-0.212257 -0.0901,-0.06893 -0.17782,-0.140307 -0.26385,-0.214749 -0.0898,-0.07521 -0.1809,-0.148672 -0.27529,-0.217569 -0.0747,-0.05711 -0.15345,-0.10843 -0.23365,-0.15597 -0.0779,-0.04951 -0.16133,-0.08542 -0.24342,-0.124495 -0.0923,-0.04257 -0.18487,-0.08392 -0.27496,-0.132661 -0.0897,-0.04363 -0.17499,-0.09479 -0.25969,-0.149249 -0.0794,-0.04668 -0.16036,-0.09013 -0.24207,-0.131178 -0.0824,-0.03666 -0.16682,-0.06577 -0.24944,-0.101569 -0.0771,-0.03033 -0.15466,-0.06249 -0.23398,-0.08113 -0.0818,-0.02727 -0.1633,-0.05612 -0.2426,-0.09336 -0.0781,-0.03029 -0.15631,-0.06281 -0.23308,-0.09738 -0.10199,-0.04314 -0.20109,-0.09155 -0.29235,-0.159934 -0.0735,-0.05078 -0.14041,-0.108732 -0.20602,-0.168873 a 8.0274668,7.7796535 -180 0 0 -3.79334,0.0953 z m 8.44796,2.714149 c 0.045,0.06036 0.0913,0.119889 0.13467,0.181285 0.0521,0.06635 0.10456,0.131848 0.15249,0.201009 0.0704,0.102318 0.13854,0.205917 0.20153,0.312295 0.0783,0.130674 0.14335,0.266756 0.2159,0.39981 0.0509,0.08634 0.1107,0.167841 0.16836,0.250421 a 8.0274668,7.7796535 -180 0 0 -0.87295,-1.34482 z" />
    <path
       sodipodi:type="spiral"
       style="fill:none;fill-rule:evenodd;stroke:#ffda59;stroke-width:0.264583;stroke-opacity:0.980392"
       id="path39"
       sodipodi:cx="171.90067"
       sodipodi:cy="67.841293"
       sodipodi:expansion="1"
       sodipodi:revolution="2.9671261"
       sodipodi:radius="11.166904"
       sodipodi:argument="-18.013353"
       sodipodi:t0="0"
       d="m 171.90067,67.841293 c 0.37944,0.4201 -0.37909,0.718747 -0.69824,0.630662 -0.86488,-0.238703 -0.94853,-1.36631 -0.56309,-2.02713 0.68947,-1.182052 2.3268,-1.241381 3.35603,-0.495518 1.51044,1.094584 1.54368,3.300588 0.42794,4.684923 -1.48709,1.8451 -4.27914,1.850053 -6.01382,0.360374 -2.18291,-1.874608 -2.15854,-5.259973 -0.2928,-7.342715 2.25966,-2.52248 6.24209,-2.468257 8.67161,-0.225231 2.86311,2.643329 2.77875,7.225008 0.15766,10.000508 -3.02614,3.204425 -8.20846,3.089744 -11.3294,0.09009 -3.54622,-3.408401 -3.40111,-9.192289 -0.0225,-12.658301 3.79027,-3.888341 10.17639,-3.712725 13.9872,0.04506 3.60204,3.551921 4.07747,9.306198 1.34489,13.513048"
       transform="matrix(0.25510876,-0.69051643,-0.84755828,-0.25801698,187.06889,212.9392)" />
    <path
       style="opacity:0.978155;fill:#fff6d5;fill-opacity:1;stroke:none;stroke-width:1.31617;stroke-dasharray:0.329045, 0.329045;stroke-dashoffset:1.31617;stroke-opacity:1;paint-order:stroke fill markers"
       d="m 166.75367,225.38047 -0.25784,6.4419 -2.66439,7.1781 -5.41473,4.87744 -5.07092,1.47244 -4.6412,-0.46012 z"
       id="path40" />
    <path
       style="opacity:1;fill:url(#radialGradient60);fill-rule:evenodd;stroke:none;stroke-width:1.00867;stroke-dasharray:0.252167, 0.252167;stroke-dashoffset:1.00867;stroke-opacity:0.980392;paint-order:stroke fill markers"
       d="m 23.379571,81.3555 4.537321,-9.3248 137.632098,-0.135141 -4.12484,9.3248 z"
       id="path41" />
    <path
       style="opacity:1;fill:#ffdd55;fill-opacity:1;fill-rule:evenodd;stroke:none;stroke-width:1;stroke-dasharray:0.25, 0.25;stroke-dashoffset:1;stroke-opacity:0.980392;paint-order:stroke fill markers"
       d="m 40.899614,100.52896 -1.146717,1.14671"
       id="path60" />
    <path
       style="opacity:1;fill:#ffdd55;fill-opacity:1;fill-rule:evenodd;stroke:none;stroke-width:1;stroke-dasharray:0.25, 0.25;stroke-dashoffset:1;stroke-opacity:0.980392;paint-order:stroke fill markers"
       d="m 75.301157,159.77606 0.764479,0.76448"
       id="path61" />
    <path
       style="opacity:1;fill:#ffdd55;fill-opacity:1;fill-rule:evenodd;stroke:none;stroke-width:1;stroke-dasharray:0.25, 0.25;stroke-dashoffset:1;stroke-opacity:0.980392;paint-order:stroke fill markers"
       d="m 136.8417,198 8.7915,-0.76448"
       id="path62" />
    <circle
       id="path63"
       style="fill:#ffdd55;stroke:#ffde5d;stroke-width:0.264583;stroke-opacity:1"
       cx="51.602318"
       cy="98.235527"
       r="0.19243054" />
    <circle
       id="path64"
       style="fill:#ffdd55;stroke:#ffde5d;stroke-width:0.264583"
       cx="40.517376"
       cy="97.471046"
       r="0.19243054" />
    <text
       xml:space="preserve"
       style="font-style:normal;font-variant:normal;font-weight:normal;font-stretch:normal;font-size:15.9269px;line-height:2;font-family:'Comic Sans MS';-inkscape-font-specification:'Comic Sans MS';text-align:center;letter-spacing:0px;text-anchor:middle;opacity:1;fill:#ffcc00;fill-opacity:1;fill-rule:evenodd;stroke:#ffcb00;stroke-width:1.41085;stroke-dasharray:0.352712, 0.352712;stroke-dashoffset:1.41085;stroke-opacity:1;paint-order:stroke fill markers"
       x="112.49438"
       y="81.517952"
       id="text66"
       transform="scale(0.82350657,1.2143194)"><tspan
         sodipodi:role="line"
         id="tspan66"
         style="font-style:normal;font-variant:normal;font-weight:normal;font-stretch:normal;font-family:'Comic Sans MS';-inkscape-font-specification:'Comic Sans MS';stroke:#ffcb00;stroke-width:1.41085;stroke-opacity:1;fill:#ffcc00"
         x="112.49438"
         y="81.517952">TODO LIST</tspan></text>
    <path
       style="fill:#ffcc00;fill-rule:evenodd;stroke:#ffcb00;stroke-width:5.46022;stroke-dasharray:1.36506, 1.36506;stroke-dashoffset:5.46022;paint-order:stroke fill markers"
       d=""
       id="path1"
       transform="matrix(0.26458333,0,0,0.26458333,2.1436539,64.18286)" />
  </g>
  <metadata
     id="metadata66">
    <rdf:RDF>
      <cc:Work
         rdf:about="">
        <dc:title>pergamena2</dc:title>
      </cc:Work>
    </rdf:RDF>
  </metadata>
</svg>
